<?xml version="1.0" encoding="UTF-8" standalone="no"?><!DOCTYPE svg PUBLIC "-//W3C//DTD SVG 1.1//EN" "http://www.w3.org/Graphics/SVG/1.1/DTD/svg11.dtd"><svg width="100%" height="100%" viewBox="0 0 256 114" version="1.1" xmlns="http://www.w3.org/2000/svg" xmlns:xlink="http://www.w3.org/1999/xlink" xml:space="preserve" xmlns:serif="http://www.serif.com/" style="fill-rule:evenodd;clip-rule:evenodd;stroke-linejoin:round;stroke-miterlimit:2;"><g transform="matrix(0.295023,0,0,0.295023,-2.50463,-10.5689)"><g transform="matrix(2,0,0,1,-94.3231,0)"><text x="94.323px" y="280.875px" style="font-family:'Nickodemus-Extremus';font-size:200px;fill:#060000;">W</text></g><text x="201.923px" y="280.875px" style="font-family:'Nickodemus-Extremus';font-size:200px;fill:#d9d5d5;">eb</text></g><g id="PC"><path id="FOOTER" d="M185.095,94.069c0,-1.095 -0.889,-1.984 -1.984,-1.984l-26.936,0c-1.095,0 -1.984,0.889 -1.984,1.984c0,1.095 0.889,1.984 1.984,1.984l26.936,0c1.095,0 1.984,-0.889 1.984,-1.984Z" style="fill:#e6e9ed;"/><path id="MID" d="M180.57,92.085l-21.437,0l1.517,-5.777l18.404,0l1.516,5.777Z" style="fill:#ccd1d9;"/><path id="BOTTOM-BAR" serif:id="BOTTOM BAR" d="M134.28,78.214l0,2.887c0,2.913 2.364,5.277 5.277,5.277l61.206,0c2.913,0 5.277,-2.364 5.277,-5.277l0,-2.887l-71.76,0Z" style="fill:#e6e9ed;"/><path id="MAIN-SCREEN" serif:id="MAIN SCREEN" d="M206.04,78.98l0,-42.356c0,-2.964 -2.364,-5.371 -5.277,-5.371l-61.206,0c-2.913,0 -5.277,2.407 -5.277,5.371l0,42.356l71.76,0Z" style="fill:#43454e;"/><clipPath id="_clip1"><path d="M206.04,78.98l0,-42.356c0,-2.964 -2.364,-5.371 -5.277,-5.371l-61.206,0c-2.913,0 -5.277,2.407 -5.277,5.371l0,42.356l71.76,0Z"/></clipPath><g clip-path="url(#_clip1)"><path d="M139.714,40.07l0,31.868c0,0.709 0.576,1.285 1.285,1.285l58.123,0c0.709,0 1.285,-0.576 1.285,-1.285l0,-31.868l-60.693,0Z" style="fill:#f4f6f9;"/><clipPath id="_clip2"><path d="M139.714,40.07l0,31.868c0,0.709 0.576,1.285 1.285,1.285l58.123,0c0.709,0 1.285,-0.576 1.285,-1.285l0,-31.868l-60.693,0Z"/></clipPath><g clip-path="url(#_clip2)"><rect x="142.916" y="59.164" width="15.869" height="10.997" style="fill:#e6e9ed;"/><circle cx="150.85" cy="63.126" r="2.125" style="fill:#5d9cec;"/><rect x="145.352" y="67.237" width="11.136" height="1.392" style="fill:#656d78;"/><rect x="181.545" y="59.164" width="15.869" height="10.997" style="fill:#e6e9ed;"/><rect x="183.911" y="67.237" width="11.136" height="1.392" style="fill:#656d78;"/><circle cx="189.48" cy="63.126" r="2.125" style="fill:#5d9cec;"/><rect x="162.23" y="59.164" width="15.869" height="10.997" style="fill:#e6e9ed;"/><rect x="164.348" y="67.237" width="11.136" height="1.392" style="fill:#656d78;"/><circle cx="170.165" cy="63.126" r="2.125" style="fill:#5d9cec;"/><rect x="142.916" y="43.503" width="54.499" height="12.389" style="fill:#4a89dc;"/><rect x="147.44" y="47.053" width="45.381" height="2.645" style="fill:#f4f6f9;"/></g></g><path id="TOP-BAR" serif:id="TOP BAR" d="M200.407,40.07l0,-1.755c0,-0.709 -0.576,-1.285 -1.285,-1.285l-58.123,0c-0.709,0 -1.285,0.576 -1.285,1.285l0,1.755l60.693,0Z" style="fill:#c4cfdf;"/><path d="M206.04,59.318c0,-0.354 -0.287,-0.642 -0.641,-0.642l-20.498,0c-0.354,0 -0.642,0.288 -0.642,0.642l0,36.094c0,0.353 0.288,0.641 0.642,0.641l20.498,0c0.354,0 0.641,-0.288 0.641,-0.641l0,-36.094Z" style="fill:#313942;"/><clipPath id="_clip3"><path d="M206.04,59.318c0,-0.354 -0.287,-0.642 -0.641,-0.642l-20.498,0c-0.354,0 -0.642,0.288 -0.642,0.642l0,36.094c0,0.353 0.288,0.641 0.642,0.641l20.498,0c0.354,0 0.641,-0.288 0.641,-0.641l0,-36.094Z"/></clipPath><g clip-path="url(#_clip3)"><path d="M196.577,93.791c-0.788,0.787 -2.067,0.787 -2.854,0c-0.788,-0.788 -0.788,-2.066 0,-2.854c0.787,-0.787 2.066,-0.787 2.854,0c0.787,0.788 0.787,2.066 0,2.854Z" style="fill:#e5e8ec;"/><rect x="186.139" y="60.138" width="18.027" height="28.537" style="fill:#e5e8ec;"/><rect x="187.392" y="78.304" width="15.591" height="8.979" style="fill:#fff;"/><rect x="189.619" y="85.125" width="11.136" height="1.114" style="fill:#5c97e2;"/><circle cx="195.187" cy="81.889" r="2.262" style="fill:#5c97e2;"/><rect x="187.392" y="61.6" width="15.591" height="15.173" style="fill:#5c97e2;"/><rect x="189.619" y="66.472" width="11.136" height="1.114" style="fill:#fff;"/><rect x="189.619" y="68.629" width="11.136" height="1.114" style="fill:#fff;"/><rect x="189.582" y="70.857" width="11.136" height="1.114" style="fill:#fff;"/></g></g></svg>