<?xml version="1.0" standalone="no"?><!DOCTYPE svg PUBLIC "-//W3C//DTD SVG 1.1//EN" "http://www.w3.org/Graphics/SVG/1.1/DTD/svg11.dtd"><svg t="1583727944206" class="icon" viewBox="0 0 1024 1024" version="1.1" xmlns="http://www.w3.org/2000/svg" p-id="18662" xmlns:xlink="http://www.w3.org/1999/xlink" width="200" height="200"><defs><style type="text/css"></style></defs><path d="M694.718541 511.796089H621.68607a34.525475 34.525475 0 0 0-36.573115 32.022805v447.864237c1.365093 18.883785 17.63245 33.160382 36.573115 31.965926h73.08935c18.940664 1.137577 35.264901-13.082141 36.629994-31.965926V543.818894a34.525475 34.525475 0 0 0-36.629994-32.022805zM402.247382 658.088548H329.101153a34.127323 34.127323 0 0 0-36.516236 30.430196v304.643238a34.127323 34.127323 0 0 0 36.516236 30.487075h73.146229a33.899808 33.899808 0 0 0 36.573115-30.487075v-304.643238a33.899808 33.899808 0 0 0-36.573115-30.430196z m-292.528038 73.08935H36.629993a33.558534 33.558534 0 0 0-36.573114 29.23574v233.999679a33.558534 33.558534 0 0 0 36.573114 29.23574h73.089351a33.558534 33.558534 0 0 0 36.573114-29.23574v-233.999679a33.558534 33.558534 0 0 0-36.573114-29.23574z m850.907923-365.617388h26.278039a36.573115 36.573115 0 0 1 36.914388 37.255661v583.520346a36.629993 36.629993 0 0 1-36.573115 37.31254h-73.08935a37.31254 37.31254 0 0 1-36.629994-37.255661V402.87305a36.80063 36.80063 0 0 1 36.971267-37.255662h46.071886z m-2.616428-242.588389v40.383999a32.76223 32.76223 0 0 0 65.467582 0V23.035943A22.979064 22.979064 0 0 0 1000.499357 0h-140.71833a32.705351 32.705351 0 1 0 0 65.410703h61.884213A1240.983227 1240.983227 0 0 1 31.852168 474.767944a32.022805 32.022805 0 0 0-31.73841 29.633892 33.103503 33.103503 0 0 0 33.160382 35.833689 1306.792082 1306.792082 0 0 0 924.850457-417.206525l-0.113758-0.113758z" fill="#ff6600" p-id="18663"></path></svg>