<?xml version="1.0" encoding="UTF-8" standalone="no"?><!DOCTYPE svg PUBLIC "-//W3C//DTD SVG 1.1//EN" "http://www.w3.org/Graphics/SVG/1.1/DTD/svg11.dtd"><svg width="100%" height="100%" viewBox="0 0 200 200" version="1.1" xmlns="http://www.w3.org/2000/svg" xmlns:xlink="http://www.w3.org/1999/xlink" xml:space="preserve" xmlns:serif="http://www.serif.com/" style="fill-rule:evenodd;clip-rule:evenodd;stroke-linejoin:round;stroke-miterlimit:2;"><path d="M92.159,14.08c2.699,-5.891 4.138,-5.875 6.684,0.049l22.202,51.635c1.058,2.46 3.952,3.616 6.461,2.577c2.508,-1.039 3.68,-3.877 2.622,-6.336l-22.194,-51.635c-5.906,-13.723 -18.544,-13.844 -24.767,-0.253l-23.282,50.852c-1.119,2.434 -0.008,5.298 2.475,6.393c2.482,1.096 5.403,0.008 6.518,-2.429l23.281,-50.853Zm92.672,63.359c6.544,0.695 6.975,2.044 2.018,6.254l-43.187,36.664c-2.055,1.754 -2.282,4.806 -0.498,6.832c1.783,2.017 4.897,2.237 6.952,0.491l43.179,-36.673c11.486,-9.748 7.693,-21.578 -7.406,-23.188l-56.479,-6.015c-2.705,-0.287 -5.138,1.632 -5.433,4.288c-0.295,2.656 1.662,5.04 4.375,5.332l56.479,6.015l0,0Zm-30.673,107.332c1.345,6.318 0.174,7.141 -5.433,3.816l-48.891,-28.965c-2.332,-1.382 -5.362,-0.649 -6.771,1.633c-1.406,2.289 -0.658,5.259 1.674,6.65l48.888,28.965c12.99,7.7 23.289,0.507 20.184,-14.079l-11.622,-54.566c-0.56,-2.615 -3.174,-4.293 -5.834,-3.741c-2.667,0.544 -4.375,3.106 -3.824,5.721l11.629,54.566Zm-108.695,3.385c-5.71,3.212 -6.865,2.373 -5.381,-3.891l12.975,-54.582c0.616,-2.6 -1.032,-5.2 -3.684,-5.804c-2.648,-0.605 -5.301,1.013 -5.921,3.612l-12.971,54.575c-3.445,14.509 6.707,21.892 19.882,14.487l49.3,-27.711c2.362,-1.33 3.182,-4.285 1.825,-6.605c-1.353,-2.312 -4.364,-3.113 -6.726,-1.791l-49.299,27.71l0,0Zm-20.075,-90.25c-9.351,-8.319 -9.351,-8.319 -17.146,-15.253c-2.018,-1.794 -5.135,-1.643 -6.964,0.337c-1.828,1.976 -1.677,5.036 0.34,6.831c7.795,6.933 7.795,6.933 17.15,15.257l24.941,22.187c2.018,1.791 5.135,1.647 6.964,-0.333c0.821,-0.883 1.278,-2.045 1.278,-3.25c0,-1.37 -0.59,-2.676 -1.618,-3.581c-6.238,-5.555 -6.238,-5.555 -24.945,-22.194l0,-0.001Zm9.847,-23.244c1.945,-0.196 3.956,-0.4 6.018,-0.619c4.973,-0.522 10.021,-1.085 14.888,-1.644c1.699,-0.196 3.26,-0.378 4.643,-0.541c0.827,-0.098 1.417,-0.169 1.73,-0.207c2.702,-0.325 4.622,-2.739 4.289,-5.392c-0.332,-2.652 -2.792,-4.538 -5.494,-4.209c-0.302,0.038 -0.884,0.106 -1.707,0.204c-1.372,0.159 -2.918,0.34 -4.61,0.537c-4.837,0.555 -9.854,1.114 -14.789,1.632c-1.988,0.209 -3.976,0.413 -5.966,0.612c-4.012,0.4 -7.689,0.744 -10.953,1.016c-2.713,0.227 -4.727,2.57 -4.496,5.229c0.234,2.664 2.618,4.636 5.331,4.409c3.325,-0.275 7.054,-0.623 11.116,-1.027Z" style="fill:#d81e06;fill-rule:nonzero;"/></svg>