<?xml version="1.0" encoding="UTF-8" standalone="no"?><!DOCTYPE svg PUBLIC "-//W3C//DTD SVG 1.1//EN" "http://www.w3.org/Graphics/SVG/1.1/DTD/svg11.dtd"><svg width="100%" height="100%" viewBox="0 0 200 200" version="1.1" xmlns="http://www.w3.org/2000/svg" xmlns:xlink="http://www.w3.org/1999/xlink" xml:space="preserve" xmlns:serif="http://www.serif.com/" style="fill-rule:evenodd;clip-rule:evenodd;stroke-linejoin:round;stroke-miterlimit:2;"><path d="M189.498,18.547l-24.107,0l0,29.725c0,6.653 -5.97,12.071 -13.316,12.071l-9.086,0c-7.346,0 -13.317,-5.406 -13.317,-12.071l0,-29.725l-59.332,0l0,29.725c0,6.653 -5.983,12.071 -13.317,12.071l-9.098,0c-7.346,0 -13.316,-5.406 -13.316,-12.071l0,-29.725l-24.119,0c-4.008,0 -7.264,3.256 -7.264,7.264l0,166.913c0,3.997 3.256,7.276 7.264,7.276l179.008,0c4.02,0 7.276,-3.279 7.276,-7.276l0,-166.913c0.011,-4.008 -3.256,-7.264 -7.276,-7.264Zm-2.539,171.239c0,1.234 -1.034,2.269 -2.292,2.269l-169.323,0c-1.257,0 -2.292,-1.035 -2.292,-2.269l0,-102.891c0,-1.258 1.023,-2.292 2.292,-2.292l169.312,0c1.257,0 2.292,1.034 2.292,2.292l0.011,102.891Z" style="fill:#f30;fill-rule:nonzero;"/><path d="M47.925,48.437l9.086,0c3.338,0 6.053,-2.151 6.053,-4.796l0,-38.846c0,-2.656 -2.715,-4.795 -6.053,-4.795l-9.086,0c-3.349,0 -6.064,2.139 -6.064,4.795l0,38.858c0,2.633 2.715,4.784 6.064,4.784Z" style="fill:#f30;fill-rule:nonzero;"/><path d="M142.989,48.437l9.086,0c3.349,0 6.064,-2.151 6.064,-4.796l0,-38.846c0,-2.656 -2.703,-4.795 -6.064,-4.795l-9.086,0c-3.35,0 -6.065,2.139 -6.065,4.795l0,38.858c0.024,2.633 2.715,4.784 6.065,4.784Z" style="fill:#f30;fill-rule:nonzero;"/><path d="M141.602,98.801c-1.587,-1.575 -4.137,-1.575 -5.712,0l-47.367,47.391l-24.401,-24.589c-1.575,-1.563 -4.114,-1.563 -5.689,0l-8.556,8.545c-1.564,1.563 -1.564,4.137 0,5.689l35.766,36.013c1.563,1.563 4.125,1.563 5.7,0l58.804,-58.815c1.587,-1.563 1.587,-4.137 0,-5.712l-8.545,-8.522Z" style="fill:#f30;fill-rule:nonzero;"/></svg>