<?xml version="1.0" standalone="no"?><!DOCTYPE svg PUBLIC "-//W3C//DTD SVG 1.1//EN" "http://www.w3.org/Graphics/SVG/1.1/DTD/svg11.dtd"><svg t="1583299336638" class="icon" viewBox="0 0 1024 1024" version="1.1" xmlns="http://www.w3.org/2000/svg" p-id="2320" xmlns:xlink="http://www.w3.org/1999/xlink" width="200" height="200"><defs><style type="text/css"></style></defs><path d="M425.117 128.924c-16.307 0-30.065-11.211-30.065-27.518S408.81 73.89 425.117 73.89H596.08c16.306 0 30.065 11.21 30.065 27.517s-13.759 27.518-30.065 27.518H425.117M30.702 322.564c-16.306 0-24.97-11.21-24.97-27.517s8.664-30.066 24.97-30.066H991.77c16.307 0 24.97 13.759 24.97 30.066s-8.663 27.517-24.97 27.517l-961.067 2.548" p-id="2321" fill="#ffffff"></path><path d="M773.16 131.472c-16.307 0-30.066-13.76-30.066-30.066s13.759-30.065 30.065-30.065h95.547c84.08 0 148.032 67.774 148.032 153.384l-2.547 646.91c0 84.081-60.13 148.034-145.485 148.034h-715.96c-84.08 0-148.032-62.679-148.032-148.033v-648.44c0-84.08 62.678-150.836 148.032-150.836h95.547c16.306 0 30.065 11.211 30.065 27.518s-13.759 30.065-30.065 30.065h-95.801c-50.194 0-91.725 41.53-91.725 91.724v647.166c0 50.194 41.531 91.724 91.725 91.724H868.45c50.193 0 91.724-41.53 91.724-91.724V223.196c0-50.194-41.53-91.724-91.724-91.724h-95.292" p-id="2322" fill="#ffffff"></path><path d="M332.883 202.558c16.306 0 27.517-14.014 27.517-30.32l-0.51-140.644c0-16.307-11.465-30.065-27.772-30.065s-27.517 14.013-27.517 30.32l0.51 140.644c0.255 16.306 11.465 30.065 27.772 30.065z m354.412-1.02c16.307 0 27.518-14.013 27.518-30.32l-0.51-140.643c0-16.307-11.465-30.065-27.772-30.065s-27.517 14.013-27.517 30.32l0.51 140.644c0 16.306 11.21 30.065 27.771 30.065z m89.686 291.99c-9.936-10.447-26.498-11.466-37.454-2.039L464.61 723.603l-99.623-167.397c-7.643-12.74-22.93-17.07-36.18-9.937-13.249 6.115-17.835 22.167-10.191 34.906l109.304 183.959h0.255c8.663 8.408 19.619 13.503 30.575 14.523h3.312c9.173 0 19.619-4.587 27.008-9.682l0.255 0.254 285.364-240.776c11.211-9.427 12.23-25.479 2.293-35.925z" p-id="2323" fill="#ffffff"></path></svg>