<?xml version="1.0" standalone="no"?><!DOCTYPE svg PUBLIC "-//W3C//DTD SVG 1.1//EN" "http://www.w3.org/Graphics/SVG/1.1/DTD/svg11.dtd"><svg t="1582980942358" class="icon" viewBox="0 0 1025 1024" version="1.1" xmlns="http://www.w3.org/2000/svg" p-id="3761" xmlns:xlink="http://www.w3.org/1999/xlink" width="200.1953125" height="200"><defs><style type="text/css"></style></defs><path d="M977.847229 437.021124l-115.323337-11.241054a19.334948 19.334948 0 0 1-16.363559-12.663972h-0.00837a357.001811 357.001811 0 0 0-13.308471-31.747817 357.487277 357.487277 0 0 0-16.38867-30.316528 19.393538 19.393538 0 0 1 2.603104-23.42793l75.833171-91.861926c1.171815-1.757723 1.682392-3.850249 1.57358-5.959516a9.575403 9.575403 0 0 0-2.678434-6.101809l-0.00837-0.00837-92.556646-92.841228a9.508442 9.508442 0 0 0-6.059957-2.594734 9.709324 9.709324 0 0 0-6.068328 1.757723l0.02511 0.02511-100.834681 82.579478c-6.344541 5.197837-15.007602 5.691673-21.762278 1.925124a340.295077 340.295077 0 0 0-24.909439-10.696997 341.810067 341.810067 0 0 0-26.909895-9.106676 19.343318 19.343318 0 0 1-13.869267-16.673254L587.808605 46.789987a9.608883 9.608883 0 0 0-3.222492-5.641452 9.617253 9.617253 0 0 0-6.378021-2.418961h-0.150662v0.083701H446.805779a19.669752 19.669752 0 0 1-1.113224-0.04185 9.709324 9.709324 0 0 0-5.415459 2.37711 9.583773 9.583773 0 0 0-3.247602 5.825595l-12.111545 130.933586a19.334948 19.334948 0 0 1-14.003189 16.865766 342.278793 342.278793 0 0 0-26.784343 9.064826c-8.989495 3.448484-17.660926 7.189922-25.980813 11.199204a19.360058 19.360058 0 0 1-20.674165-2.452442l-0.02511 0.02511-100.834681-82.579477-0.351545-0.292954c-1.674021-1.004413-3.632627-1.448029-5.591231-1.339217a9.541922 9.541922 0 0 0-5.741894 2.352l0.025111 0.025111L131.654504 224.068857l-0.225993 0.217623a9.533552 9.533552 0 0 0-2.151118 5.507531c-0.117182 2.134377 0.418505 4.260385 1.615431 6.026477l0.01674-0.00837 75.916872 93.017001c5.381979 6.612385 5.666563 15.719061 1.339218 22.549068a366.485143 366.485143 0 0 0-16.095717 29.872913 365.614652 365.614652 0 0 0-13.35032 31.647375 19.385168 19.385168 0 0 1-17.409823 12.697453l-114.503067 11.450306c-2.218078 0.368285-4.193424 1.54847-5.649822 3.214121-1.52336 1.757723-2.427331 4.009281-2.418961 6.378022v0.159032h0.083701v132.130512c0 0.376655-0.01674 0.74494-0.03348 1.113224 0.192512 2.008826 1.046263 3.8921 2.36874 5.41546 1.456399 1.674021 3.431744 2.845836 5.649822 3.214121l100.834682 10.119459a19.360058 19.360058 0 0 1 17.049908 15.317296c2.929538 13.911118 6.721196 27.705055 11.333125 41.32322a359.479363 359.479363 0 0 0 16.137567 39.758009 19.334948 19.334948 0 0 1-2.444072 20.531873l0.016741 0.00837-58.825114 72.434907-0.117181 0.142292a9.818136 9.818136 0 0 0-1.51499 5.875815c0.108811 2.042306 0.903972 4.076242 2.352001 5.750264l0.02511-0.02511 93.301585 93.301584 0.217622 0.225993c1.623801 1.322477 3.557296 2.042306 5.499161 2.151118 2.109267 0.108811 4.218534-0.418505 5.984626-1.590321l-0.04185-0.05022 66.651163-54.472658a19.401908 19.401908 0 0 1 23.771105-0.611018c13.392171 8.219445 27.504172 15.60188 42.22719 22.080343 15.066193 6.629125 30.517411 12.186876 46.261583 16.614663a19.376798 19.376798 0 0 1 14.120371 17.677666l8.278036 81.943349c0.368285 2.226449 1.54847 4.201794 3.222491 5.658193 1.757723 1.52336 4.000911 2.427331 6.369651 2.410591h0.150662v-0.075331h132.138882c0.376655 0 0.74494 0.01674 1.113225 0.03348a9.709324 9.709324 0 0 0 5.415459-2.36874c1.699132-1.481509 2.887687-3.498705 3.239231-5.758634l8.060414-82.688289a19.351688 19.351688 0 0 1 14.10363-16.823915 348.079277 348.079277 0 0 0 90.037243-39.532016 19.343318 19.343318 0 0 1 22.406777 1.481509l0.03348-0.041851 66.642794 54.472658 0.351544 0.301324c1.674021 1.004413 3.632627 1.439658 5.591232 1.339217a9.541922 9.541922 0 0 0 5.741893-2.34363l-0.01674-0.033481 93.301585-93.301584 0.225993-0.217623a9.784655 9.784655 0 0 0 0.527316-11.534008l-0.01674 0.00837-60.557725-74.17589a19.351688 19.351688 0 0 1-2.033936-21.360513 359.646765 359.646765 0 0 0 15.735801-38.920998 358.977157 358.977157 0 0 0 11.333125-41.34833 19.368428 19.368428 0 0 1 17.711147-15.375887l100.181813-10.044128c2.218078-0.368285 4.193424-1.54847 5.649822-3.222492 1.53173-1.757723 2.427331-4.000911 2.410591-6.378021v-0.150662h-0.075331V445.935288l0.00837-0.485466a9.575403 9.575403 0 0 0-2.502662-5.306648 9.592143 9.592143 0 0 0-6.068327-3.063459l-0.502207-0.058591z m-99.704717-48.580102l103.471265 10.085979a48.228558 48.228558 0 0 1 43.943063 44.754963c0.117182 0.870491 0.184142 1.757723 0.184142 2.653324v131.260021h-0.083701a48.211817 48.211817 0 0 1-11.801851 31.99892 48.236928 48.236928 0 0 1-30.835475 16.238008l-87.258367 8.746762a393.227635 393.227635 0 0 1-22.130563 64.717668l52.957668 64.868331-0.033481 0.02511 0.334805 0.426876a48.262038 48.262038 0 0 1-2.159488 61.520287 19.52746 19.52746 0 0 1-1.456399 1.623801l-93.309955 93.301585-0.03348-0.033481-0.334804 0.334805a48.253668 48.253668 0 0 1-60.817199 4.74585 19.50235 19.50235 0 0 1-2.477552-1.732612l-56.163419-45.901668a385.954012 385.954012 0 0 1-75.255633 32.978223l-6.846748 70.141498a48.236928 48.236928 0 0 1-16.229638 30.902436 48.195077 48.195077 0 0 1-29.964984 11.793481 19.669752 19.669752 0 0 1-2.033936 0.108811H447.6679v-0.083701a48.228558 48.228558 0 0 1-31.998919-11.810221 48.211817 48.211817 0 0 1-16.229638-30.827105l-7.089481-70.225199a385.535507 385.535507 0 0 1-75.00453-32.978223l-56.16342 45.901668-0.05859-0.066961-0.477096 0.368285a48.262038 48.262038 0 0 1-61.520288-2.167858 19.52746 19.52746 0 0 1-1.615431-1.448028L104.208922 827.361072l0.033481-0.03348-0.334804-0.343175a48.245298 48.245298 0 0 1-4.302235-61.436586c0.393395-0.611018 0.820271-1.205295 1.288996-1.782833l51.233426-63.102238a393.62103 393.62103 0 0 1-22.147304-64.742779L42.722115 627.164849a48.228558 48.228558 0 0 1-30.827105-16.221268 48.178337 48.178337 0 0 1-11.78511-29.964984A19.669752 19.669752 0 0 1 0.001088 578.927921V446.797409h0.083701a48.228558 48.228558 0 0 1 11.801851-32.00729 48.220187 48.220187 0 0 1 30.835475-16.229637l104.023692-10.404044a415.994327 415.994327 0 0 1 21.636727-45.240429l-67.488174-82.696659 0.03348-0.02511a48.103006 48.103006 0 0 1-10.311972-32.375575 48.262038 48.262038 0 0 1 12.145026-29.571588c0.451986-0.560797 0.929082-1.096484 1.448028-1.615431l93.301585-93.301585 0.033481 0.033481 0.343174-0.334805a48.228558 48.228558 0 0 1 60.808829-4.74585c0.853751 0.502206 1.690762 1.079744 2.485921 1.724242l91.468532 74.912459a361.337527 361.337527 0 0 1 34.953567-13.425652l10.92299-118.152433a48.236928 48.236928 0 0 1 16.271488-31.463233 48.195077 48.195077 0 0 1 29.964984-11.776741A19.669752 19.669752 0 0 1 446.805779 0.001088h131.260021v0.075331a48.228558 48.228558 0 0 1 31.99892 11.818591 48.220187 48.220187 0 0 1 16.238008 30.827105l11.76837 118.755081a361.211975 361.211975 0 0 1 35.020529 13.450762l91.468531-74.912459 0.041851 0.05022 0.334804-0.276213a48.312259 48.312259 0 0 1 62.834394 2.879317l0.460356 0.451986 92.966781 93.259734 0.644498 0.636128a48.245298 48.245298 0 0 1 4.168313 61.603989 19.611161 19.611161 0 0 1-1.238776 1.690761l-68.224743 82.646439a410.068291 410.068291 0 0 1 21.594876 45.483162z" p-id="3762"></path><path d="M659.29769 365.573889a206.15574 206.15574 0 0 1 60.557726 146.225772c0 30.299788-6.620755 60.599576-19.853895 88.555734a70.041057 70.041057 0 0 1 23.662293 52.581014c0 17.97899-6.863488 35.95798-20.582093 49.676586a70.032687 70.032687 0 0 1-49.676586 20.573723 70.032687 70.032687 0 0 1-49.676586-20.573723l-0.510577-0.518947-0.050221-0.050221-0.05022-0.05022-0.025111-0.02511-0.02511-0.025111-0.050221-0.058591-0.05022-0.05022-0.460356-0.468726-0.041851-0.050221-0.502206-0.535687-0.050221-0.05022-0.092071-0.108812-0.05022-0.05022-0.050221-0.050221-0.200883-0.217623-0.04185-0.05022-0.050221-0.050221-0.050221-0.058591-0.05022-0.05022-0.050221-0.058591-0.03348-0.041851h-0.00837l-0.050221-0.058591-0.050221-0.05859-0.05022-0.050221-0.041851-0.058591-0.100441-0.100441-0.050221-0.058591-0.092071-0.108811-0.050221-0.050221-0.04185-0.05859-0.050221-0.050221-0.01674-0.01674-0.03348-0.041851-0.041851-0.050221a69.965726 69.965726 0 0 1-9.014605-12.948555l-0.259474-0.493837-0.00837-0.01674-0.175772-0.334804-0.251103-0.468726-0.058591-0.125552-0.01674-0.02511-0.251103-0.502207-0.033481-0.06696-0.209253-0.418506-0.234363-0.502206-0.142291-0.292954-0.167402-0.334804-0.133922-0.309694-0.025111-0.050221-0.225992-0.502206-0.050221-0.100442-0.167402-0.401765-0.175772-0.385025-0.050221-0.117181-0.217623-0.502207v-0.01674l-0.167402-0.368284-0.125552-0.326435-0.125551-0.292953-0.200883-0.510577-0.02511-0.058591-0.150662-0.385025-0.083701-0.217622-0.276214-0.73657-0.05022-0.133922-0.108812-0.301323-0.03348-0.100442-0.192513-0.535687-0.133921-0.385024-0.159032-0.451986-0.041851-0.133922-0.050221-0.142292-0.167402-0.518946-0.01674-0.050221-0.083701-0.276214-0.150662-0.451985-0.058591-0.184143-0.01674-0.075331-0.167402-0.518946-0.01674-0.083701-0.083701-0.292954-0.167402-0.585908-0.025111-0.075331-0.01674-0.04185-0.192512-0.686349-0.016741-0.083701-0.066961-0.234363-0.133921-0.527317-0.01674-0.058591-0.050221-0.192512-0.125552-0.493836-0.03348-0.142292-0.041851-0.167402-0.117181-0.518947-0.033481-0.133922-0.03348-0.150662-0.133922-0.594277-0.01674-0.083701-0.02511-0.092071-0.142292-0.669609-0.033481-0.159032-0.100441-0.527317-0.04185-0.209253v-0.02511l-0.108812-0.527317-0.00837-0.05859-0.066961-0.393395-0.01674-0.083701-0.092071-0.527317-0.00837-0.050221-0.025111-0.125551-0.092071-0.585908-0.03348-0.192512-0.092071-0.644499-0.016741-0.117181-0.01674-0.092071-0.083701-0.585908-0.01674-0.159032-0.01674-0.117181-0.066961-0.535687-0.00837-0.083701-0.033481-0.301324-0.02511-0.150662-0.050221-0.485466v-0.050221l-0.083701-0.728199-0.00837-0.142292-0.058591-0.644498-0.00837-0.092072v-0.02511l-0.01674-0.117181-0.05022-0.669609v-0.108811l-0.050221-0.694719v-0.083701l-0.00837-0.075331-0.033481-0.602648-0.01674-0.292954v-0.01674l-0.02511-0.544057v-0.284584l-0.025111-0.636128V654.551839l-0.01674-0.669608V652.928039c0-17.97899 6.855118-35.966351 20.565354-49.676587a70.032687 70.032687 0 0 1 49.676586-20.573723 70.225199 70.225199 0 0 1 33.689681 8.57936 191.432721 191.432721 0 0 0 17.242421-79.465798 190.671041 190.671041 0 0 0-56.021127-135.244191 190.671041 190.671041 0 0 0-135.252562-56.012758c-18.824371 0-37.648742 2.762135-55.820245 8.286407-6.076698 1.841424-5.800484 2.033936-8.56262-2.418961-0.937452-1.506619-1.983715-3.046719-3.088569-4.67052-2.259929-3.322933-3.440114-4.352456 3.13042-6.503574a207.411256 207.411256 0 0 1 64.341014-10.2199 206.14737 206.14737 0 0 1 146.225772 60.557725z m30.651333 252.375472a49.98628 49.98628 0 1 1-70.702296 70.693925 49.98628 49.98628 0 0 1 70.702296-70.693925zM408.027073 336.027411a49.98628 49.98628 0 1 1-70.702296 70.685555 49.98628 49.98628 0 0 1 70.702296-70.685555zM575.613359 708.940796a207.461476 207.461476 0 0 1-62.558181 9.642363 206.15574 206.15574 0 0 1-146.225773-60.557725 206.15574 206.15574 0 0 1-60.557725-146.225773c0-30.107276 6.537054-60.222921 19.602791-88.020047a70.041057 70.041057 0 0 1-23.804585-52.714935c0-17.97899 6.863488-35.966351 20.573723-49.676586a70.041057 70.041057 0 0 1 49.676587-20.573723 70.041057 70.041057 0 0 1 52.714935 23.804585l0.225992-0.100442c3.565666 4.017651 6.587274 8.370107 9.064826 12.915076l-0.242733 0.108811a70.233569 70.233569 0 0 1 8.487289 33.522279c0 17.97899-6.863488 35.95798-20.573723 49.676587a70.032687 70.032687 0 0 1-49.676586 20.573723 70.225199 70.225199 0 0 1-33.51391-8.487289 191.449461 191.449461 0 0 0-17.008057 78.971961 190.671041 190.671041 0 0 0 56.012757 135.252562 190.671041 190.671041 0 0 0 135.244192 56.012758c18.690449 0 37.372529-2.720285 55.410109-8.160855 4.980214-1.506619 5.047175-0.694719 7.148072 3.12205 1.104854 2.017196 2.259929 4.067872 3.423373 6.177139 1.674021 3.063459 0.828641 3.398264-3.423373 4.737481z" p-id="3763"></path></svg>