<?xml version="1.0" standalone="no"?><!DOCTYPE svg PUBLIC "-//W3C//DTD SVG 1.1//EN" "http://www.w3.org/Graphics/SVG/1.1/DTD/svg11.dtd"><svg t="1590891958812" class="icon" viewBox="0 0 1024 1024" version="1.1" xmlns="http://www.w3.org/2000/svg" p-id="10949" xmlns:xlink="http://www.w3.org/1999/xlink" width="200" height="200"><defs><style type="text/css"></style></defs><path d="M297.437867 613.870933H70.724267c-9.489067 0-17.937067 8.448-17.937067 17.954134v307.2c0 9.489067 8.448 17.937067 17.937067 17.937066h882.551466c9.489067 0 17.937067-8.448 17.937067-17.937066v-307.2c0-9.506133-8.448-17.954133-17.937067-17.954134H655.5648l-126.6688 126.685867h247.022933c14.779733 0 26.385067 11.605333 26.385067 26.385067s-11.605333 26.385067-26.385067 26.385066H248.081067c-14.779733 0-26.385067-11.605333-26.385067-26.385066s11.605333-26.385067 26.385067-26.385067h175.8208l-126.464-126.685867z m-52.6848-52.7872l-102.7584-102.912c-12.151467-12.151467-12.151467-32.2048 0-44.885333L545.792 9.506133c5.802667-5.802667 13.704533-9.489067 22.152533-9.489066s16.366933 3.1744 22.186667 9.506133l312.456533 312.4736c12.151467 12.1344 12.151467 32.187733 0 44.868267L708.352 561.083733h244.906667A70.741333 70.741333 0 0 1 1024 631.825067v307.2a70.741333 70.741333 0 0 1-70.724267 70.724266H70.724267A70.741333 70.741333 0 0 1 0 939.025067v-307.2a70.724267 70.724267 0 0 1 70.724267-70.741334h174.0288z m-50.517334-125.098666l282.402134 282.402133 373.7088-373.7088L567.944533 62.276267 194.2528 435.985067z m296.6528 84.462933a55.296 55.296 0 0 1-38.007466-15.3088l-0.512-0.529067-85.521067-86.562133a27.101867 27.101867 0 0 1 0-37.4784 27.101867 27.101867 0 0 1 37.4784 0l85.504 86.033067a3.976533 3.976533 0 0 0 2.116267 0.529066l126.6688-126.685866a26.129067 26.129067 0 0 1 37.4784 0 26.129067 26.129067 0 0 1 0 37.4784l-126.6688 126.685866a53.879467 53.879467 0 0 1-38.536534 15.837867z" fill="#9f39e9" p-id="10950"></path></svg>