<?xml version="1.0" encoding="UTF-8" standalone="no"?>
<!DOCTYPE svg PUBLIC "-//W3C//DTD SVG 1.1//EN" "http://www.w3.org/Graphics/SVG/1.1/DTD/svg11.dtd">
<svg width="100%" height="100%" viewBox="0 0 200 200" version="1.1" xmlns="http://www.w3.org/2000/svg" xmlns:xlink="http://www.w3.org/1999/xlink" xml:space="preserve" xmlns:serif="http://www.serif.com/" style="fill-rule:evenodd;clip-rule:evenodd;stroke-linejoin:round;stroke-miterlimit:2;">
    <path d="M150,10L150,0L130,0L130,10L70,10L70,0L50,0L50,10L0,10L0,200L200,200L200,10L150,10ZM143.235,100.1L113.45,129.379L143.235,159.192L129.993,172.614L100,142.903L70.266,172.614L56.765,158.532L87.2,129.379L56.765,100L70.3,86.144L100,115.804L130,86.144L143.235,100.1ZM20,60L20,30L50,30L50,40L70,40L70,30L130,30L130,40L150,40L150,30L180,30L180,60L20,60Z" style="fill:rgb(211,71,26);fill-rule:nonzero;"/>
</svg>
