<?xml version="1.0" standalone="no"?><!DOCTYPE svg PUBLIC "-//W3C//DTD SVG 1.1//EN" "http://www.w3.org/Graphics/SVG/1.1/DTD/svg11.dtd"><svg t="1583156837907" class="icon" viewBox="0 0 1026 1024" version="1.1" xmlns="http://www.w3.org/2000/svg" p-id="3062" xmlns:xlink="http://www.w3.org/1999/xlink" width="200.390625" height="200"><defs><style type="text/css"></style></defs><path d="M513.342578 1023.975441c-282.754852 0-511.975441-229.220588-511.975441-511.975441s229.220588-511.975441 511.975441-511.975441 511.975441 229.220588 511.975441 511.975441S796.09743 1023.975441 513.342578 1023.975441zM513.342578 44.544519c-258.168897 0-467.455481 209.286584-467.455481 467.455481 0 124.725676 49.15656 237.754962 128.766712 321.573973-7.172353-23.777543-11.975752-75.810616 71.572082-98.976222l178.078815-66.778916L424.304705 623.298875c0 0-58.069557-20.12741-89.038896-111.298875L313.003783 311.661206c0 0 31.04097-133.558855 200.337771-133.558855 165.16776 0 195.452507 133.558855 195.452507 133.558855l-21.716604 200.337771c-30.213116 91.171466-86.326111 111.298875-86.326111 111.298875l-0.543376 44.519959 173.735903 66.778916c107.403149 30.525224 65.149812 111.298875 65.149812 111.298875s-0.189312 0.659009-0.403183 1.362021c87.525426-84.951811 142.106532-203.650213 142.106532-335.25967C980.798059 253.831103 771.511475 44.544519 513.342578 44.544519z" p-id="3063" fill="#ffffff"></path></svg>