<?xml version="1.0" encoding="UTF-8" standalone="no"?><!DOCTYPE svg PUBLIC "-//W3C//DTD SVG 1.1//EN" "http://www.w3.org/Graphics/SVG/1.1/DTD/svg11.dtd"><svg width="100%" height="100%" viewBox="0 0 200 200" version="1.1" xmlns="http://www.w3.org/2000/svg" xmlns:xlink="http://www.w3.org/1999/xlink" xml:space="preserve" xmlns:serif="http://www.serif.com/" style="fill-rule:evenodd;clip-rule:evenodd;stroke-linejoin:round;stroke-miterlimit:2;"><path d="M99.58,116.894c32.233,0 58.456,-26.223 58.456,-58.446c0,-32.222 -26.223,-58.448 -58.456,-58.448c-32.233,0 -58.454,26.223 -58.454,58.448c0,32.226 26.223,58.446 58.454,58.446Zm0,-97.994c21.817,0 39.568,17.739 39.568,39.548c0,21.81 -17.751,39.546 -39.568,39.546c-21.817,0 -39.566,-17.739 -39.566,-39.546c0,-21.807 17.764,-39.548 39.566,-39.548Zm51.552,110.282l-102.279,0c-26.939,0 -48.853,21.922 -48.853,48.868c0.013,11.827 9.74,21.555 21.567,21.569l156.866,0c11.826,-0.015 21.553,-9.743 21.567,-21.569c0,-26.946 -21.922,-48.868 -48.868,-48.868Zm27.301,51.537l-156.866,0c-1.467,0.003 -2.678,-1.202 -2.682,-2.669c0.017,-16.433 13.534,-29.951 29.968,-29.968l102.279,0c16.438,0.013 29.962,13.53 29.983,29.968c-0.006,1.467 -1.215,2.67 -2.682,2.669Z" style="fill-rule:nonzero;"/></svg>