<?xml version="1.0" encoding="UTF-8" standalone="no"?>
<!DOCTYPE svg PUBLIC "-//W3C//DTD SVG 1.1//EN" "http://www.w3.org/Graphics/SVG/1.1/DTD/svg11.dtd">
<svg width="100%" height="100%" viewBox="0 0 200 250" version="1.1" xmlns="http://www.w3.org/2000/svg" xmlns:xlink="http://www.w3.org/1999/xlink" xml:space="preserve" xmlns:serif="http://www.serif.com/" style="fill-rule:evenodd;clip-rule:evenodd;stroke-linejoin:round;stroke-miterlimit:2;">
    <g transform="matrix(0.912453,0,0,0.912453,8.75473,33.7547)">
        <path d="M197.09,197.09C197.09,197.09 197.09,183.74 195.978,176.762C195.068,171.25 187.432,163.968 154.967,152.034C123.008,140.303 124.981,146.017 124.981,124.424C124.981,110.417 132.111,118.558 136.662,91.96C138.432,81.492 139.848,88.471 143.691,71.682C145.713,62.883 142.325,62.226 142.73,58.029C143.134,53.832 143.539,50.089 144.297,41.493C145.208,30.874 135.347,2.91 100,2.91C64.653,2.91 54.792,30.874 55.753,41.544C56.512,50.089 56.916,53.882 57.321,58.079C57.725,62.276 54.337,62.934 56.36,71.733C60.203,88.471 61.619,81.492 63.389,92.01C67.94,118.609 75.07,110.468 75.07,124.475C75.07,146.118 77.042,140.404 45.083,152.085C12.619,163.968 4.932,171.301 4.073,176.813C2.91,183.74 2.91,197.09 2.91,197.09L197.09,197.09Z" style="fill:rgb(255,252,252);fill-rule:nonzero;"/>
    </g>
</svg>
