<?xml version="1.0" standalone="no"?><!DOCTYPE svg PUBLIC "-//W3C//DTD SVG 1.1//EN" "http://www.w3.org/Graphics/SVG/1.1/DTD/svg11.dtd"><svg t="1585626356118" class="icon" viewBox="0 0 1024 1024" version="1.1" xmlns="http://www.w3.org/2000/svg" p-id="11185" xmlns:xlink="http://www.w3.org/1999/xlink" width="200" height="200"><defs><style type="text/css"></style></defs><path d="M508.8 224c-73.6 0-134.4 60.8-134.4 134.4 0 22.4 6.4 44.8 16 67.2l57.6-32c-6.4-12.8-9.6-22.4-9.6-35.2 0-38.4 32-70.4 70.4-70.4s70.4 32 70.4 70.4v3.2c0 19.2-6.4 35.2-19.2 48l-35.2 35.2c-28.8 25.6-44.8 60.8-41.6 99.2h64c-3.2-22.4 6.4-41.6 22.4-54.4l35.2-35.2c25.6-25.6 38.4-57.6 38.4-96v-3.2C640 284.8 582.4 224 508.8 224zM480 608h64v64h-64z" fill="#ffffff" p-id="11186"></path><path d="M864 0H160C70.4 0 0 70.4 0 160v544c0 89.6 70.4 160 160 160h192v160h54.4l185.6-160H864c89.6 0 160-70.4 160-160V160c0-89.6-70.4-160-160-160z m96 704c0 54.4-41.6 96-96 96h-297.6L416 931.2V800H160c-54.4 0-96-41.6-96-96V160c0-54.4 41.6-96 96-96h704c54.4 0 96 41.6 96 96v544z" fill="#ffffff" p-id="11187"></path></svg>