<?xml version="1.0" encoding="UTF-8" standalone="no"?>
<!DOCTYPE svg PUBLIC "-//W3C//DTD SVG 1.1//EN" "http://www.w3.org/Graphics/SVG/1.1/DTD/svg11.dtd">
<svg width="100%" height="100%" viewBox="0 0 200 220" version="1.1" xmlns="http://www.w3.org/2000/svg" xmlns:xlink="http://www.w3.org/1999/xlink" xml:space="preserve" xmlns:serif="http://www.serif.com/" style="fill-rule:evenodd;clip-rule:evenodd;stroke-linejoin:round;stroke-miterlimit:2;">
    <g transform="matrix(1,0,0,1,0,10)">
        <path d="M43.857,20.814L146.824,20.814C148.678,20.791 150.185,19.247 150.164,17.393L150.164,16.993C150.182,15.14 148.677,13.598 146.824,13.571L43.857,13.571C42.004,13.598 40.499,15.14 40.517,16.993L40.517,17.398C40.499,19.251 42.004,20.793 43.857,20.82M98.448,35.716L98.448,35.305C98.469,33.451 96.962,31.907 95.108,31.884L43.857,31.884C42.003,31.907 40.496,33.451 40.517,35.305L40.517,35.711C40.499,37.564 42.004,39.105 43.857,39.132L95.135,39.132C96.989,39.108 98.496,37.565 98.475,35.711M200.183,81.747L200.183,-3.541C199.977,-8.12 196.251,-11.823 191.67,-12L8.508,-12C3.925,-11.82 0.201,-8.112 0,-3.53L0,203.513C0.28,208.419 4.529,212.235 9.437,211.988L200.183,211.988L200.183,81.747M189.816,66.775L189.816,200.216L18.475,200.216C18.475,200.216 10.367,202.465 10.367,192.676L10.367,6.68C10.464,2.661 13.666,-0.653 17.68,-0.887L182.487,-0.887C186.501,-0.653 189.703,2.661 189.8,6.68L189.8,66.785M139.322,150.165C142.659,149.651 146.001,149.17 149.348,148.722C75.071,153.343 34.966,173.277 34.966,173.277C34.966,173.277 32.263,175.061 34.966,176.309C38.17,175.793 41.272,174.769 44.154,173.277C81.638,160.673 120.451,152.434 159.823,148.722C152.478,149.008 139.343,150.165 139.343,150.165M159.823,159.781C85.519,164.402 45.414,184.341 45.414,184.341C45.414,184.341 42.711,186.125 45.414,187.374C48.618,186.857 51.72,185.834 54.602,184.341C92.086,171.737 130.899,163.498 170.271,159.786C162.926,160.073 149.797,161.229 149.797,161.229C153.326,160.651 159.823,159.786 159.823,159.786" style="fill:rgb(216,30,6);fill-rule:nonzero;"/>
    </g>
</svg>
