<?xml version="1.0" standalone="no"?><!DOCTYPE svg PUBLIC "-//W3C//DTD SVG 1.1//EN" "http://www.w3.org/Graphics/SVG/1.1/DTD/svg11.dtd"><svg t="1581866174314" class="icon" viewBox="0 0 1024 1024" version="1.1" xmlns="http://www.w3.org/2000/svg" p-id="13458" xmlns:xlink="http://www.w3.org/1999/xlink" width="200" height="200"><defs><style type="text/css"></style></defs><path d="M512 1024H109.381818c-51.2 0-93.090909-41.890909-93.090909-93.090909V384c0-30.254545 13.963636-58.181818 37.236364-74.472727L458.472727 18.618182c32.581818-23.272727 76.8-23.272727 109.381818 0l402.618182 290.909091c23.272727 16.290909 37.236364 46.545455 37.236364 74.472727V930.909091c0 51.2-41.890909 93.090909-93.090909 93.090909H861.090909c-23.272727 0-44.218182-18.618182-44.218182-44.218182 0-23.272727 18.618182-44.218182 44.218182-44.218182h51.2c2.327273 0 4.654545-2.327273 4.654546-4.654545V384c0-2.327273 0-2.327273-2.327273-4.654545L514.327273 88.436364c-2.327273-2.327273-4.654545-2.327273-6.981818 0L107.054545 379.345455c-2.327273 0-2.327273 2.327273-2.327272 4.654545V930.909091c0 2.327273 2.327273 4.654545 4.654545 4.654545h397.963637c95.418182 2.327273 174.545455-65.163636 190.836363-158.254545 9.309091-51.2-2.327273-102.4-32.581818-144.290909-30.254545-41.890909-74.472727-69.818182-123.345455-79.127273-104.727273-18.618182-204.8 51.2-223.418181 155.927273-4.654545 23.272727-27.927273 39.563636-51.2 34.909091-23.272727-4.654545-39.563636-27.927273-34.909091-51.2 25.6-151.272727 172.218182-253.672727 323.490909-225.745455 74.472727 13.963636 137.309091 53.527273 181.527273 114.036364 41.890909 60.509091 58.181818 134.981818 46.545454 209.454545-20.945455 134.981818-137.309091 232.727273-272.290909 232.727273z" p-id="13459"></path></svg>