<?xml version="1.0" encoding="UTF-8" standalone="no"?>
<!DOCTYPE svg PUBLIC "-//W3C//DTD SVG 1.1//EN" "http://www.w3.org/Graphics/SVG/1.1/DTD/svg11.dtd">
<svg width="100%" height="100%" viewBox="0 0 201 200" version="1.1" xmlns="http://www.w3.org/2000/svg" xmlns:xlink="http://www.w3.org/1999/xlink" xml:space="preserve" xmlns:serif="http://www.serif.com/" style="fill-rule:evenodd;clip-rule:evenodd;stroke-linejoin:round;stroke-miterlimit:2;">
    <path d="M190.986,85.356L168.462,83.16C167.01,83.023 165.762,82.058 165.266,80.687L165.264,80.687C164.498,78.579 163.63,76.51 162.665,74.486C161.694,72.462 160.625,70.486 159.464,68.565C158.583,67.104 158.793,65.221 159.972,63.989L174.783,46.047C175.012,45.704 175.112,45.295 175.091,44.883C175.065,44.436 174.879,44.013 174.568,43.692L174.566,43.69L156.489,25.557C156.167,25.252 155.747,25.072 155.305,25.05C154.883,25.029 154.465,25.15 154.12,25.393L154.125,25.398L134.43,41.527C133.191,42.542 131.499,42.639 130.18,41.903C128.587,41.142 126.964,40.445 125.315,39.814C123.588,39.148 121.835,38.555 120.059,38.035C118.578,37.606 117.502,36.313 117.35,34.779L114.806,9.139C114.731,8.71 114.508,8.32 114.177,8.037C113.834,7.733 113.39,7.564 112.931,7.564L112.902,7.564L112.902,7.581L87.267,7.581C87.194,7.58 87.122,7.577 87.049,7.573C86.657,7.614 86.287,7.776 85.992,8.037C85.651,8.328 85.426,8.732 85.357,9.175L82.992,34.748C82.851,36.303 81.76,37.617 80.257,38.042C78.489,38.56 76.744,39.15 75.025,39.812C73.27,40.486 71.576,41.216 69.951,42C68.629,42.638 67.049,42.45 65.913,41.521L65.908,41.525L46.214,25.397L46.145,25.339C45.818,25.143 45.436,25.057 45.053,25.078C44.639,25.102 44.244,25.263 43.932,25.537L43.937,25.542L25.714,43.763L25.67,43.806C25.419,44.111 25.272,44.488 25.249,44.882C25.227,45.299 25.331,45.714 25.565,46.059L25.568,46.057L40.396,64.224C41.447,65.516 41.503,67.295 40.657,68.629C39.52,70.524 38.471,72.471 37.514,74.463C36.548,76.481 35.678,78.544 34.906,80.644C34.38,82.08 33.034,83.062 31.506,83.124L9.142,85.361C8.709,85.433 8.323,85.663 8.038,85.988C7.741,86.332 7.564,86.771 7.566,87.234L7.566,87.265L7.582,87.265L7.582,113.072C7.582,113.145 7.579,113.217 7.576,113.289C7.613,113.682 7.78,114.049 8.038,114.347C8.323,114.674 8.709,114.903 9.142,114.975L28.836,116.951C30.476,117.113 31.83,118.33 32.166,119.943C32.738,122.66 33.479,125.354 34.38,128.014C35.275,130.663 36.327,133.256 37.532,135.779C38.16,137.093 37.973,138.659 37.054,139.789L37.058,139.791L25.568,153.938L25.545,153.966C25.328,154.308 25.224,154.71 25.249,155.114C25.271,155.513 25.426,155.91 25.709,156.237L25.714,156.232L43.937,174.455L43.979,174.499C44.296,174.757 44.674,174.898 45.053,174.919C45.465,174.94 45.877,174.837 46.222,174.608L46.214,174.599L59.232,163.959C60.567,162.868 62.486,162.819 63.875,163.84C66.49,165.446 69.247,166.887 72.122,168.153C75.065,169.447 78.083,170.533 81.158,171.398C82.719,171.836 83.833,173.231 83.915,174.85L85.532,190.855C85.604,191.29 85.835,191.676 86.162,191.96C86.505,192.258 86.943,192.434 87.406,192.431L87.435,192.431L87.435,192.416L113.244,192.416C113.317,192.416 113.389,192.419 113.461,192.423C113.853,192.382 114.223,192.22 114.519,191.96C114.851,191.671 115.083,191.277 115.151,190.835L116.726,174.685C116.873,173.128 117.973,171.817 119.48,171.399C125.678,169.671 131.599,167.071 137.066,163.678C138.433,162.834 140.197,162.95 141.442,163.968L141.448,163.959L154.465,174.599L154.533,174.658C154.86,174.854 155.243,174.939 155.625,174.919C156.04,174.896 156.434,174.735 156.747,174.461L156.744,174.455L174.967,156.232L175.011,156.189C175.53,155.543 175.572,154.628 175.114,153.937L175.11,153.938L163.283,139.451C162.323,138.27 162.166,136.62 162.885,135.279C164.057,132.807 165.083,130.269 165.959,127.677C166.857,125.032 167.596,122.335 168.172,119.601C168.518,117.941 169.94,116.707 171.632,116.598L191.198,114.636C191.632,114.564 192.017,114.334 192.302,114.007C192.601,113.664 192.776,113.226 192.773,112.761L192.773,112.732L192.758,112.732L192.758,87.097L192.76,87.002C192.709,86.614 192.538,86.251 192.271,85.965C191.962,85.628 191.54,85.415 191.086,85.367L190.987,85.356L190.986,85.356ZM171.512,75.867L191.721,77.837C196.325,78.237 199.989,81.968 200.304,86.579C200.327,86.749 200.34,86.922 200.34,87.097L200.34,112.733L200.324,112.733C200.342,115.027 199.522,117.251 198.019,118.983C196.477,120.753 194.328,121.885 191.996,122.155L174.953,123.863C173.883,128.194 172.436,132.423 170.631,136.503L180.974,149.173L180.968,149.178L181.033,149.261C183.786,152.834 183.608,157.906 180.611,161.277C180.523,161.388 180.428,161.494 180.327,161.594L162.102,179.817L162.096,179.81L162.03,179.876C158.805,182.954 153.816,183.344 150.152,180.803C149.982,180.703 149.82,180.589 149.668,180.464L138.699,171.499C134.042,174.163 129.115,176.322 124,177.94L122.663,191.64C122.397,193.976 121.266,196.13 119.493,197.675C117.865,199.091 115.798,199.905 113.641,199.979C113.509,199.993 113.376,200 113.244,200L87.435,200L87.435,199.984C85.141,200.002 82.918,199.181 81.185,197.677C79.416,196.136 78.285,193.987 78.015,191.656L76.631,177.94C71.533,176.32 66.622,174.16 61.982,171.499L51.012,180.464L51.001,180.451L50.907,180.523C47.334,183.275 42.262,183.097 38.892,180.1C38.781,180.011 38.676,179.917 38.576,179.817L20.353,161.594L20.36,161.587L20.294,161.52C17.178,158.256 16.823,153.188 19.454,149.521C19.531,149.402 19.614,149.286 19.706,149.173L29.712,136.848C27.906,132.767 26.459,128.536 25.387,124.203L8.344,122.493C6.013,122.224 3.865,121.094 2.323,119.325C0.908,117.696 0.095,115.629 0.021,113.472C0.007,113.339 0,113.206 0,113.072L0,87.265L0.017,87.265C-0.002,84.971 0.818,82.747 2.322,81.014C3.863,79.244 6.012,78.113 8.344,77.844L28.661,75.812C29.891,72.784 31.302,69.833 32.887,66.976L19.706,50.824L19.712,50.819C18.295,49.027 17.578,46.778 17.698,44.496C17.81,42.357 18.647,40.32 20.07,38.72C20.159,38.611 20.252,38.506 20.353,38.405L38.576,20.182L38.583,20.188L38.65,20.123C41.874,17.043 46.864,16.654 50.527,19.196C50.693,19.294 50.857,19.407 51.012,19.533L68.877,34.164C71.106,33.173 73.384,32.297 75.704,31.542L77.837,8.465C78.079,6.089 79.216,3.891 81.015,2.32C82.644,0.905 84.711,0.093 86.868,0.02C87,0.006 87.134,0 87.267,0L112.903,0L112.903,0.015C115.198,-0.003 117.421,0.819 119.153,2.323C120.923,3.864 122.055,6.013 122.325,8.344L124.623,31.539C126.947,32.295 129.23,33.172 131.463,34.166L149.328,19.534L149.336,19.544L149.402,19.49C153.055,16.637 158.297,16.877 161.674,20.053L161.764,20.141L179.922,38.356L180.047,38.48C183.173,41.756 183.518,46.845 180.862,50.512C180.787,50.626 180.706,50.736 180.62,50.842L167.294,66.984C168.881,69.856 170.29,72.823 171.512,75.867Z" style="fill:rgb(255,51,0);fill-rule:nonzero;"/>
    <path d="M128.769,71.401C136.352,78.965 140.611,89.251 140.597,99.961C140.597,105.879 139.304,111.797 136.719,117.257C139.661,119.857 141.346,123.601 141.341,127.527C141.341,131.038 140,134.55 137.321,137.229C134.751,139.805 131.257,141.252 127.618,141.247C123.98,141.252 120.485,139.805 117.916,137.229L117.816,137.128L117.806,137.118L117.796,137.108L117.791,137.103L117.787,137.098L117.777,137.087L117.767,137.077L117.677,136.986L117.669,136.976L117.571,136.871L117.561,136.861L117.543,136.84L117.533,136.83L117.523,136.82L117.484,136.778L117.476,136.768L117.466,136.758L117.456,136.747L117.447,136.737L117.437,136.726L117.43,136.717L117.429,136.717L117.419,136.706L117.409,136.695L117.399,136.685L117.391,136.673L117.371,136.654L117.362,136.642L117.344,136.621L117.334,136.611L117.326,136.6L117.316,136.59L117.312,136.587L117.306,136.578L117.298,136.569C116.617,135.795 116.027,134.946 115.537,134.04L115.486,133.943L115.485,133.94L115.45,133.875L115.401,133.783L115.39,133.758L115.387,133.754L115.338,133.655L115.331,133.642L115.29,133.561L115.244,133.463L115.217,133.405L115.184,133.34L115.158,133.279L115.153,133.27L115.109,133.172L115.099,133.152L115.066,133.073L115.032,132.998L115.022,132.975L114.98,132.877L114.98,132.874L114.947,132.802L114.922,132.738L114.898,132.681L114.859,132.581L114.854,132.57L114.824,132.495L114.808,132.452L114.754,132.308L114.744,132.282L114.723,132.223L114.716,132.204L114.679,132.099L114.653,132.024L114.622,131.936L114.613,131.91L114.604,131.882L114.571,131.78L114.568,131.771L114.551,131.717L114.522,131.628L114.51,131.592L114.507,131.578L114.475,131.476L114.471,131.46L114.455,131.403L114.422,131.288L114.417,131.274L114.414,131.265L114.376,131.131L114.373,131.115L114.36,131.069L114.334,130.966L114.331,130.955L114.321,130.917L114.296,130.821L114.29,130.793L114.282,130.76L114.259,130.659L114.252,130.633L114.246,130.603L114.219,130.487L114.216,130.471L114.211,130.453L114.184,130.322L114.177,130.291L114.157,130.188L114.149,130.147L114.149,130.142L114.128,130.039L114.126,130.028L114.113,129.951L114.11,129.935L114.092,129.832L114.09,129.822L114.085,129.797L114.067,129.683L114.061,129.645L114.043,129.519L114.04,129.497L114.036,129.479L114.02,129.364L114.017,129.333L114.013,129.31L114,129.206L113.999,129.189L113.992,129.13L113.987,129.101L113.978,129.006L113.978,128.996L113.961,128.854L113.96,128.826L113.948,128.7L113.946,128.682L113.946,128.678L113.943,128.655L113.933,128.524L113.933,128.503L113.924,128.367L113.924,128.351L113.922,128.336L113.915,128.218L113.912,128.161L113.912,128.158L113.907,128.051L113.907,127.996L113.902,127.872L113.902,127.842L113.899,127.711L113.899,127.525C113.899,124.013 115.238,120.5 117.916,117.823C120.485,115.246 123.98,113.799 127.618,113.804C129.917,113.802 132.18,114.379 134.198,115.48C136.419,110.607 137.568,105.314 137.566,99.959C137.579,90.053 133.638,80.54 126.624,73.544C119.628,66.531 110.114,62.591 100.208,62.604C96.531,62.604 92.854,63.144 89.305,64.223C88.118,64.582 88.172,64.62 87.633,63.75C87.45,63.456 87.246,63.155 87.03,62.838C86.588,62.189 86.358,61.988 87.641,61.568C91.699,60.245 95.94,59.571 100.208,59.572C110.918,59.557 121.203,63.817 128.767,71.4L128.769,71.401ZM134.756,120.693C136.586,122.524 137.615,125.009 137.615,127.597C137.615,132.953 133.207,137.361 127.851,137.361C125.262,137.361 122.777,136.331 120.947,134.501C119.116,132.67 118.087,130.185 118.087,127.597C118.087,122.241 122.495,117.833 127.851,117.833C130.44,117.833 132.925,118.863 134.756,120.693ZM79.693,65.63C81.523,67.461 82.552,69.945 82.552,72.533C82.552,77.889 78.144,82.297 72.788,82.297C70.199,82.297 67.714,81.267 65.884,79.436C64.054,77.606 63.025,75.121 63.025,72.533C63.025,67.177 67.432,62.77 72.788,62.77C75.377,62.77 77.862,63.8 79.693,65.63ZM112.424,138.465C108.472,139.714 104.351,140.349 100.206,140.348C89.496,140.363 79.21,136.103 71.646,128.521C64.064,120.956 59.804,110.671 59.819,99.961C59.819,94.081 61.095,88.199 63.647,82.769C60.688,80.169 58.992,76.413 58.998,72.474C58.998,68.962 60.339,65.449 63.016,62.771C65.586,60.195 69.08,58.748 72.719,58.753C76.658,58.747 80.414,60.443 83.015,63.402L83.059,63.383C83.755,64.167 84.345,65.017 84.829,65.905L84.782,65.926C85.871,67.936 86.441,70.187 86.44,72.474C86.44,75.985 85.099,79.497 82.421,82.176C79.852,84.752 76.357,86.199 72.719,86.194C70.433,86.196 68.183,85.626 66.173,84.537C63.981,89.383 62.849,94.642 62.851,99.961C62.838,109.867 66.778,119.381 73.791,126.377C80.787,133.391 90.3,137.331 100.206,137.317C103.857,137.317 107.505,136.786 111.028,135.723C112.001,135.429 112.014,135.588 112.424,136.333C112.64,136.727 112.866,137.128 113.093,137.54C113.42,138.138 113.255,138.203 112.424,138.465Z" style="fill:rgb(255,51,0);fill-rule:nonzero;"/>
</svg>
