<?xml version="1.0" standalone="no"?><!DOCTYPE svg PUBLIC "-//W3C//DTD SVG 1.1//EN" "http://www.w3.org/Graphics/SVG/1.1/DTD/svg11.dtd"><svg t="1583727838294" class="icon" viewBox="0 0 1024 1024" version="1.1" xmlns="http://www.w3.org/2000/svg" p-id="17838" xmlns:xlink="http://www.w3.org/1999/xlink" width="200" height="200"><defs><style type="text/css"></style></defs><path d="M489.671 354.417H187.078c-11.334 0-20.52-9.22-20.52-20.595v-50.324c0-11.374 9.186-20.593 20.52-20.593h302.593c11.334 0 20.52 9.22 20.52 20.593v50.324c0 11.373-9.186 20.595-20.52 20.595zM811.26 583.103H187.078c-11.334 0-20.52-9.22-20.52-20.595v-50.324c0-11.374 9.186-20.593 20.52-20.593H811.26c11.334 0 20.52 9.22 20.52 20.593v50.324c0 11.373-9.186 20.595-20.52 20.595zM811.26 811.79H187.078c-11.334 0-20.52-9.22-20.52-20.596v-50.322c0-11.375 9.186-20.595 20.52-20.595H811.26c11.334 0 20.52 9.22 20.52 20.595v50.322c0 11.375-9.186 20.595-20.52 20.595z" p-id="17839" fill="#1296db"></path><path d="M634.705 16.156H90.965c-41.251 0-74.809 33.681-74.809 75.083V932.761c0 41.402 33.558 75.083 74.809 75.083h838.45c41.249 0 74.809-33.681 74.809-75.083V394.358c0-41.4-33.56-75.081-74.809-75.081H709.514V91.239c0-41.402-33.56-75.083-74.809-75.083m0 54.488c11.332 0 20.52 9.219 20.52 20.595v261.931c0 11.374 9.186 20.595 20.518 20.595h253.673c11.334 0 20.52 9.219 20.52 20.593V932.761c0 11.375-9.186 20.595-20.52 20.595H90.965c-11.332 0-20.52-9.219-20.52-20.595V91.239c0-11.375 9.188-20.595 20.52-20.595h543.74" p-id="17840" fill="#1296db"></path><path d="M982.416 16.755H770.862c-14.045 0-25.429 11.426-25.429 25.522v221.41c0 14.096 11.385 25.522 25.429 25.522h211.553c14.045 0 25.429-11.426 25.429-25.522V42.278c0.001-14.096-11.384-25.523-25.428-25.523" p-id="17841" fill="#1296db"></path></svg>