<?xml version="1.0" encoding="UTF-8" standalone="no"?>
<!DOCTYPE svg PUBLIC "-//W3C//DTD SVG 1.1//EN" "http://www.w3.org/Graphics/SVG/1.1/DTD/svg11.dtd">
<svg width="100%" height="100%" viewBox="0 0 200 200" version="1.1" xmlns="http://www.w3.org/2000/svg" xmlns:xlink="http://www.w3.org/1999/xlink" xml:space="preserve" xmlns:serif="http://www.serif.com/" style="fill-rule:evenodd;clip-rule:evenodd;stroke-linejoin:round;stroke-miterlimit:2;">
    <g transform="matrix(1.04348,0,0,1.04348,-4.34783,-4.34783)">
        <path d="M175,129.167C175,129.167 118.05,195.833 100,195.833C81.95,195.833 25,129.167 25,129.167L25,29.167C25,15.452 36.285,4.167 50,4.167L150,4.167C163.715,4.167 175,15.452 175,29.167L175,129.167ZM66.667,20.833L50,20.833C45.428,20.833 41.667,24.595 41.667,29.167L41.667,104.167L66.667,91.667L66.667,20.833ZM116.667,20.833L83.333,20.833L83.333,92.833L101.042,104.167L116.667,93.333L116.667,20.833ZM158.333,29.167C158.333,24.595 154.572,20.833 150,20.833L133.333,20.833L133.333,91.667L158.333,104.167L158.333,29.167ZM125,104.167L100,129.167L75,104.167L41.667,120.833C52.526,135.018 64.093,148.647 76.325,161.667C83.433,157.237 91.539,154.658 99.9,154.167C108.32,154.665 116.486,157.242 123.667,161.667C135.902,148.648 147.472,135.019 158.333,120.833L125,104.167Z" style="fill:rgb(67,117,192);fill-rule:nonzero;"/>
    </g>
</svg>
