<?xml version="1.0" standalone="no"?><!DOCTYPE svg PUBLIC "-//W3C//DTD SVG 1.1//EN" "http://www.w3.org/Graphics/SVG/1.1/DTD/svg11.dtd"><svg t="1581867584998" class="icon" viewBox="0 0 1024 1024" version="1.1" xmlns="http://www.w3.org/2000/svg" p-id="4155" xmlns:xlink="http://www.w3.org/1999/xlink" width="200" height="200"><defs><style type="text/css"></style></defs><path d="M866.38894 1024a157.894194 157.894194 0 0 0 157.61106-157.61106V708.77788a157.894194 157.894194 0 0 0-157.61106-157.61106H708.77788a157.894194 157.894194 0 0 0-157.61106 157.61106v157.61106a157.894194 157.894194 0 0 0 157.61106 157.61106z m-235.9447-157.61106V708.77788a78.711152 78.711152 0 0 1 78.33364-78.33364h157.61106a78.711152 78.711152 0 0 1 78.333641 78.33364v157.61106a78.711152 78.711152 0 0 1-78.333641 78.333641H708.77788a78.144885 78.144885 0 0 1-78.33364-78.333641zM866.38894 0H708.77788a157.894194 157.894194 0 0 0-157.61106 157.61106v157.61106a157.894194 157.894194 0 0 0 157.61106 157.61106h157.61106a157.894194 157.894194 0 0 0 157.61106-157.61106V157.61106A157.894194 157.894194 0 0 0 866.38894 0z m78.333641 315.22212a78.711152 78.711152 0 0 1-78.333641 78.33364H708.77788a78.711152 78.711152 0 0 1-78.33364-78.33364V157.61106a78.711152 78.711152 0 0 1 78.33364-78.333641h157.61106a78.711152 78.711152 0 0 1 78.333641 78.333641zM157.61106 471.889401h157.61106a157.894194 157.894194 0 0 0 157.61106-157.61106V157.61106A157.894194 157.894194 0 0 0 315.22212 0H157.61106A157.705438 157.705438 0 0 0 0 153.835945v165.16129A157.61106 157.61106 0 0 0 157.61106 471.889401zM78.333641 157.61106a78.711152 78.711152 0 0 1 78.33364-78.333641h158.554839a78.711152 78.711152 0 0 1 78.33364 78.333641v157.61106a78.711152 78.711152 0 0 1-78.33364 78.33364H157.61106a78.711152 78.711152 0 0 1-78.333641-78.33364V157.61106zM157.61106 1024h157.61106a157.894194 157.894194 0 0 0 157.61106-157.61106V708.77788a157.894194 157.894194 0 0 0-157.61106-157.61106H157.61106A157.705438 157.705438 0 0 0 0 705.002765v165.16129a157.705438 157.705438 0 0 0 157.61106 153.835945zM78.333641 708.77788a78.711152 78.711152 0 0 1 78.33364-78.33364h158.554839a78.711152 78.711152 0 0 1 78.33364 78.33364v157.61106a78.711152 78.711152 0 0 1-78.33364 78.333641H157.61106a78.711152 78.711152 0 0 1-78.333641-78.333641V708.77788z" p-id="4156" fill="#333333"></path></svg>