<?xml version="1.0" encoding="UTF-8" standalone="no"?>
<!DOCTYPE svg PUBLIC "-//W3C//DTD SVG 1.1//EN" "http://www.w3.org/Graphics/SVG/1.1/DTD/svg11.dtd">
<svg width="100%" height="100%" viewBox="0 0 216 200" version="1.1" xmlns="http://www.w3.org/2000/svg" xmlns:xlink="http://www.w3.org/1999/xlink" xml:space="preserve" xmlns:serif="http://www.serif.com/" style="fill-rule:evenodd;clip-rule:evenodd;stroke-linejoin:round;stroke-miterlimit:2;">
    <g transform="matrix(1.02368,0,0,1.02368,-2.62481,-2.61148)">
        <path d="M128.205,2.564C128.207,2.564 128.209,2.564 128.21,2.564C143.683,2.564 156.415,15.296 156.415,30.769C156.415,35.226 155.359,39.62 153.333,43.59L194.872,43.59C204.718,43.59 212.821,51.692 212.821,61.538L212.821,92.308C212.82,101.19 206.227,108.803 197.436,110.072L197.436,169.231C197.437,184.277 185.398,196.811 170.364,197.415L169.231,197.436L46.154,197.436C31.108,197.437 18.574,185.398 17.969,170.364L17.949,169.231L17.949,110.077C9.156,108.808 2.562,101.192 2.564,92.308L2.564,61.538C2.564,51.692 10.666,43.59 20.513,43.59L62.051,43.59C60.021,39.617 58.962,35.218 58.962,30.756C58.962,15.283 71.695,2.551 87.168,2.551C94.934,2.551 102.365,5.759 107.692,11.41C113.011,5.756 120.442,2.551 128.205,2.564ZM100.077,110.256L33.333,110.256L33.333,169.231C33.332,175.948 38.61,181.585 45.313,182.026L46.154,182.051L100.077,182.051L100.077,110.256ZM182.051,110.256L115.462,110.256L115.462,182.051L169.231,182.051C175.948,182.052 181.585,176.774 182.026,170.072L182.051,169.231L182.051,110.256ZM100.077,58.974L20.513,58.974C19.106,58.974 17.949,60.132 17.949,61.538L17.949,92.308C17.949,93.714 19.106,94.872 20.513,94.872L100.077,94.872L100.077,58.974ZM194.872,58.974L115.462,58.974L115.462,94.872L194.872,94.872C196.105,94.872 197.173,93.983 197.395,92.769L197.436,92.308L197.436,61.538C197.436,60.132 196.278,58.974 194.872,58.974ZM87.179,17.949C87.179,17.949 87.178,17.949 87.178,17.949C80.145,17.949 74.357,23.736 74.357,30.769C74.357,37.802 80.145,43.59 87.178,43.59C87.178,43.59 87.179,43.59 87.179,43.59C94.212,43.589 99.998,37.802 99.998,30.769C99.998,23.737 94.212,17.95 87.179,17.949ZM128.205,17.949C128.205,17.949 128.204,17.949 128.204,17.949C121.17,17.949 115.383,23.736 115.383,30.769C115.383,37.802 121.17,43.59 128.204,43.59C128.204,43.59 128.205,43.59 128.205,43.59C135.238,43.589 141.024,37.802 141.024,30.769C141.024,23.737 135.238,17.95 128.205,17.949Z" style="fill:rgb(113,24,162);fill-rule:nonzero;"/>
    </g>
</svg>
