<?xml version="1.0" standalone="no"?><!DOCTYPE svg PUBLIC "-//W3C//DTD SVG 1.1//EN" "http://www.w3.org/Graphics/SVG/1.1/DTD/svg11.dtd"><svg t="1581866600220" class="icon" viewBox="0 0 1024 1024" version="1.1" xmlns="http://www.w3.org/2000/svg" p-id="36793" xmlns:xlink="http://www.w3.org/1999/xlink" width="200" height="200"><defs><style type="text/css"></style></defs><path d="M1024 570.181818c4.654545 251.345455-148.945455 370.036364-360.727273 400.290909-114.036364 16.290909-228.072727 2.327273-325.818182-72.145454-107.054545-81.454545-181.527273-283.927273-93.090909-425.890909 58.181818-93.090909 239.709091-144.290909 349.090909-60.509091-13.963636 2.327273-23.272727 6.981818-34.90909 6.981818-39.563636 2.327273-67.490909 25.6-76.8 62.836364-9.309091 41.890909 18.618182 67.490909 51.2 86.10909 65.163636 39.563636 141.963636 23.272727 200.145454-37.236363 60.509091-62.836364 72.145455-132.654545 30.254546-202.472727-48.872727-86.109091-130.327273-118.690909-218.763637-137.309091-183.854545-37.236364-388.654545 69.818182-444.509091 242.036363C44.218182 607.418182 69.818182 772.654545 172.218182 923.927273c4.654545 6.981818 9.309091 11.636364 18.618182 20.945454-44.218182-11.636364-93.090909-65.163636-130.327273-132.654545C-100.072727 512 76.8 132.654545 409.6 69.818182c23.272727-4.654545 44.218182-16.290909 67.490909-20.945455 130.327273-18.618182 370.036364 65.163636 437.527273 216.436364 46.545455 100.072727 34.909091 193.163636-20.945455 286.254545-90.763636 148.945455-288.581818 211.781818-430.545454 137.309091-90.763636-48.872727-114.036364-128-58.181818-218.763636 6.981818-9.309091 9.309091-23.272727 13.963636-37.236364-55.854545 0-118.690909 60.509091-132.654546 123.345455-20.945455 95.418182 44.218182 209.454545 151.272728 256 214.109091 93.090909 444.509091 13.963636 556.218182-193.163637 9.309091-13.963636 18.618182-27.927273 30.254545-48.872727" fill="#ff3300" p-id="36794"></path></svg>