<?xml version="1.0" standalone="no"?><!DOCTYPE svg PUBLIC "-//W3C//DTD SVG 1.1//EN" "http://www.w3.org/Graphics/SVG/1.1/DTD/svg11.dtd"><svg width="1024" height="1024" xmlns="http://www.w3.org/2000/svg" xmlns:svg="http://www.w3.org/2000/svg" class="icon">
 <defs>
  <style type="text/css"/>
 </defs>
 <g>
  <title>Layer 1</title>
  <path d="m872.11432,1022.0918l-612.90785,0c-122.35287,0 -221.83605,-99.48318 -221.83605,-221.83605l0,-642.63846c0,-85.76136 69.75257,-155.51393 155.51393,-155.51393l633.49058,0c85.76136,0 155.51393,69.75257 155.51393,155.51393l0,754.69997c0,60.49035 -49.28419,109.77454 -109.77454,109.77454zm-679.22997,-937.65753c-40.36501,0 -73.18303,32.81801 -73.18303,73.18303l0,642.63846c0,76.95653 62.54862,139.50515 139.50515,139.50515l612.90785,0c15.094,0 27.44364,-12.34964 27.44364,-27.44364l0,-754.69997c0,-40.36501 -32.81801,-73.18303 -73.18303,-73.18303l-633.49058,0z" fill="#ff3300" id="svg_1"/>
  <path d="m171,692.1l682,0l0,72l-682,0l0,-72zm560,-392l-438,0c-19.9,0 -36,-16.1 -36,-36s16.1,-36 36,-36l438,0c19.9,0 36,16.1 36,36s-16.1,36 -36,36zm0,153.2l-438,0c-19.9,0 -36,-16.1 -36,-36s16.1,-36 36,-36l438,0c19.9,0 36,16.1 36,36s-16.1,36 -36,36zm-199.4,153.3l-238.6,0c-19.9,0 -36,-16.1 -36,-36s16.1,-36 36,-36l238.6,0c19.9,0 36,16.1 36,36s-16.1,36 -36,36z" fill="#ff3300" id="svg_2"/>
 </g>
</svg>